<svg fill="#000000" xmlns="http://www.w3.org/2000/svg" viewBox="0 0 50 50" width="50px" height="50px"><path d="M 22.5 5 C 16.710938 5 12 9.710938 12 15.5 C 12 15.671875 12.023438 15.832031 12.03125 16 C 12.019531 16 12.011719 16 12 16 C 7.59375 16 4 19.59375 4 24 C 4 28.40625 7.59375 32 12 32 L 36 32 C 41.511719 32 46 27.511719 46 22 C 46 16.488281 41.511719 12 36 12 C 34.746094 12 33.574219 12.296875 32.46875 12.71875 C 31.230469 8.296875 27.308594 5 22.5 5 Z M 22.5 7 C 26.75 7 30.234375 10.097656 30.875 14.15625 L 31.09375 15.53125 L 32.34375 14.90625 C 33.449219 14.335938 34.675781 14 36 14 C 40.429688 14 44 17.570313 44 22 C 44 26.429688 40.429688 30 36 30 L 12 30 C 8.675781 30 6 27.324219 6 24 C 6 20.675781 8.675781 18 12 18 C 12.324219 18 12.632813 18.039063 12.96875 18.09375 L 14.375 18.3125 L 14.125 16.9375 C 14.042969 16.457031 14 15.976563 14 15.5 C 14 10.792969 17.792969 7 22.5 7 Z M 14.875 35 C 14.652344 35.023438 14.441406 35.125 14.28125 35.28125 L 12.28125 37.28125 C 11.882813 37.679688 11.882813 38.320313 12.28125 38.71875 C 12.679688 39.117188 13.320313 39.117188 13.71875 38.71875 L 15.71875 36.71875 C 16.042969 36.417969 16.128906 35.941406 15.933594 35.546875 C 15.742188 35.148438 15.308594 34.929688 14.875 35 Z M 33.875 35 C 33.652344 35.023438 33.441406 35.125 33.28125 35.28125 L 31.28125 37.28125 C 30.882813 37.679688 30.882813 38.320313 31.28125 38.71875 C 31.679688 39.117188 32.320313 39.117188 32.71875 38.71875 L 34.71875 36.71875 C 35.042969 36.417969 35.128906 35.941406 34.933594 35.546875 C 34.742188 35.148438 34.308594 34.929688 33.875 35 Z M 23.875 39 C 23.652344 39.023438 23.441406 39.125 23.28125 39.28125 L 21.28125 41.28125 C 20.882813 41.679688 20.882813 42.320313 21.28125 42.71875 C 21.679688 43.117188 22.320313 43.117188 22.71875 42.71875 L 24.71875 40.71875 C 25.042969 40.417969 25.128906 39.941406 24.933594 39.546875 C 24.742188 39.148438 24.308594 38.929688 23.875 39 Z"/></svg>